<svg xmlns="http://www.w3.org/2000/svg" version="1.1" xmlns:xlink="http://www.w3.org/1999/xlink" xmlns:svgjs="http://svgjs.dev/svgjs" width="2000" height="2250" viewBox="0 0 2000 2250"><g transform="matrix(1,0,0,1,0.00014687500004129106,0)"><svg viewBox="0 0 320 360" data-background-color="#ffffff" preserveAspectRatio="xMidYMid meet" height="2250" width="2000" xmlns="http://www.w3.org/2000/svg" xmlns:xlink="http://www.w3.org/1999/xlink"><g id="tight-bounds" transform="matrix(1,0,0,1,0.000023499999997511622,0)"><svg viewBox="0 0 320 360" height="360" width="320"><g><svg></svg></g><g><svg viewBox="0 0 320 360" height="360" width="320"><g><path transform="translate(-74.99272,-51.79039) scale(4.65793,4.65793)" d="M20.6 59.9l0.8 1-0.4-1.3c-0.1-0.6-0.8 0.1-0.4 0.3M21.5 59.3c0.3 0.5 0.6 1 0.6 1.5 0 0.7 0.6 1 1.1 1.2-0.7-0.8-1.1-3-1.7-2.7M59.9 16.9c1.7 0 3.3-0.2 5.1 0.2 4.4 1.1 8.1 3.3 10.6 6.4l7 11.2c0.3 2.8 0.9 5.9 0.8 9.3 0.7 0 0.6-1 1.4-1.2-0.8 2-1.2 4.5-1.4 7.4-0.5-1.6 0-4 0.1-5.3-0.7 1.1-1.1 0.3-1.1-0.2 0.1-0.8-0.3-0.7-0.6-1-1.1-1-1.8-2.1-2.6-3.8 0.5-1.3 0.6-3.2-1-4.2-0.5-0.3-1.1-0.8-1.4-1.6-0.4-1.1-1.1-2.4-0.9-4.1 0.1-0.5-1.5 1.1-2.4 0.4-3.9-2.7-7.8-5.8-12.5-8.4-2.5 0-4.3-0.9-5.2-2-0.8-1-0.2-2.3 1-2.4 0.7 0 1.5-0.2 2.1 0.2 0.1-0.4 0.5-0.9 1-0.9M50 14.6l0.2 0.1c1 0.2 1.5 1.6 2.6 1.1 0 0.7 0.1 1.4-0.1 1.9-0.3 0.8-1.2 0.8-1.9 0.8-6.7-0.4-10.6 2.4-14.7 4.8-1.1 0.7-2.3 1.2-3.2 2.1-4.3 4-9 7.7-10.1 15.1l-0.9 8.2c-0.1 0.9-1.1 1.8-0.9 2.9l0.7 4.9c-0.7-0.7-1.1 0.2-0.9 0.6 0.1 0.3 0.5 1.3 1.1 0.4 0.8 1.5 1.6 4.4 2.7 5.7 3.4 4 7.8 7.6 11.4 11.2 0.9-0.2 1.6-0.2 1.8-0.8 0.3 0.6-0.3 1.2-0.8 1.3 1.6 1 3.4 1.9 5.8 2.1 3.1 0.2 6 0.7 8.7 1.4 1.4-0.4 2.8-0.6 4.3-0.7 0.5 0 0.8-0.8 1.4-1l0.1-1c0.6 0.9 0.5-0.3 0.1-0.9 0.7 0.6 0.9 1.1 1.2 1.5 0-0.3 0.8-1.4 0.8-0.1l0.2-1.3c0.3-0.2 0.4 1.1 0.7 0.2 0.3-0.9 0.9-0.2 1.5-0.5-0.2 0.4-0.1 1.2 0.6 0.7l0.8-0.7c0.5 1.2 1.3 0.7 1.7 0.5 4.4-2.8 8.8-6.1 13-9.4l-0.1 1.3 0.5-1.6c0.5 0.5 0.9 0.1 1.1-0.2 0.6-1 1.4-2 2.7-2.9-1.6 4.3-3.5 7.7-5.9 10.5l-1 1.2c0 0.7-0.2 1.6-1 1.7-0.4 0.1-1.2-0.2-1.8 0.4-0.3 0.4 0.7 1.2-0.1 0.6-0.7-0.5-1.4 0-2.2 0.2-0.6 0.2 0.4 0.8 0.6 1.2 0.2 0.4 0.4 0.8 0.3 1.3l-1.1-1.2c-1.3 0.7-2.1 2-3.2 3-0.5 0.4-0.3 1.1-0.3 1.7-0.7 0-1.5-0.2-1.9 0.2-0.3 0.4-0.2 1-0.2 1.6-1-0.1-1.1-1.6-2-1.3-0.9 0.2-1.9 0.3-2.7 0.8 0.6 1.2-1 0.5-0.8 0.7-1.5-0.9-2.8-1.6-4.4-1-3.4-1.1-7.6-0.6-10.7-0.2 0-0.5 0.1-1-0.1-1.1-0.2 0.5-0.8 0.3-0.7 0.3-1.9-1.3-3.8-2.1-5.8-3.2-1.8 0.2-3.5-0.7-4-1.2-1.4-1.3-3-0.6-4.3-0.9-2.8-0.7-3.8-3.6-4.1-5.6-0.2-1-1-1.4-1.3-1.3-1.3-4.2-3.3-8-4.9-11.9-0.4-1-0.3-2-0.3-3.1 0.5 0.2 1 0.1 0.9-0.6-0.5-3.3-1.7-5.8-3-8.2 0.7-3.4 0.8-7.4 2.4-10.4 1.4-2.7 4-4.1 5.8-6.4 0.6-0.8 0.6-1.9 1.2-2.6 2-2 4-4.1 6.2-5.9 1-0.8 2.2 0 3.7-0.3 0.5-1.8 2.5-3.4 4.4-2.9 0.8 0.2 2.4-1.9 2.9-2.1 0.8-0.3 0.4 0.8 0.4 1.5 1.9-1.5 4.5-2.3 6.9-3.2" fill="#ff4057" fill-rule="nonzero" stroke="none" stroke-width="1" stroke-linecap="butt" stroke-linejoin="miter" stroke-miterlimit="10" stroke-dasharray="" stroke-dashoffset="0" font-family="none" font-weight="none" font-size="none" text-anchor="none" style="mix-blend-mode: normal" data-fill-palette-color="tertiary"></path></g><g transform="matrix(1,0,0,1,64,98.78965405482379)"><svg viewBox="0 0 192 162.42069189035243" height="162.42069189035243" width="192"><g><svg viewBox="0 0 192 162.42069189035243" height="162.42069189035243" width="192"><g><svg viewBox="0 0 192 162.42069189035243" height="162.42069189035243" width="192"><g transform="matrix(1,0,0,1,0,98.17006889284444)"><svg viewBox="0 0 192 64.250622997508" height="64.250622997508" width="192"><g id="textblocktransform"><svg viewBox="0 0 192 64.250622997508" height="64.250622997508" width="192" id="textblock"><g><svg viewBox="0 0 192 64.250622997508" height="64.250622997508" width="192"><g transform="matrix(1,0,0,1,0,0)"><svg width="192" viewBox="3.45 -36 140.44 47" height="64.250622997508" data-palette-color="#ff4057"><path d="M7.65 11L3.45 11 3.45-24.8 7.25-24.8 7.65-20.7Q8.85-22.5 11.08-23.95 13.3-25.4 16.75-25.4L16.75-25.4Q20.45-25.4 23.2-23.7 25.95-22 27.48-19.05 29-16.1 29-12.35L29-12.35Q29-8.6 27.48-5.68 25.95-2.75 23.18-1.07 20.4 0.6 16.7 0.6L16.7 0.6Q13.65 0.6 11.28-0.65 8.9-1.9 7.65-4.15L7.65-4.15 7.65 11ZM16.25-3.05L16.25-3.05Q18.75-3.05 20.65-4.23 22.55-5.4 23.65-7.5 24.75-9.6 24.75-12.4L24.75-12.4Q24.75-15.2 23.65-17.3 22.55-19.4 20.65-20.58 18.75-21.75 16.25-21.75L16.25-21.75Q13.75-21.75 11.85-20.58 9.95-19.4 8.85-17.3 7.75-15.2 7.75-12.4L7.75-12.4Q7.75-9.6 8.85-7.5 9.95-5.4 11.85-4.23 13.75-3.05 16.25-3.05ZM46.15 0.6L46.15 0.6Q42.65 0.6 39.85-1 37.05-2.6 35.42-5.53 33.8-8.45 33.8-12.4L33.8-12.4Q33.8-16.35 35.45-19.28 37.1-22.2 39.92-23.8 42.75-25.4 46.25-25.4L46.25-25.4Q49.75-25.4 52.55-23.8 55.35-22.2 56.97-19.28 58.6-16.35 58.6-12.4L58.6-12.4Q58.6-8.45 56.95-5.53 55.3-2.6 52.47-1 49.65 0.6 46.15 0.6ZM46.15-3L46.15-3Q48.3-3 50.15-4.05 52-5.1 53.15-7.2 54.3-9.3 54.3-12.4L54.3-12.4Q54.3-15.5 53.17-17.6 52.05-19.7 50.2-20.75 48.35-21.8 46.25-21.8L46.25-21.8Q44.1-21.8 42.25-20.75 40.4-19.7 39.25-17.6 38.1-15.5 38.1-12.4L38.1-12.4Q38.1-9.3 39.25-7.2 40.4-5.1 42.22-4.05 44.05-3 46.15-3ZM73.5 0.6L73.5 0.6Q69.09 0.6 66.5-2.08 63.9-4.75 63.9-10.3L63.9-10.3 63.9-24.8 68.09-24.8 68.09-10.75Q68.09-3 74.45-3L74.45-3Q77.7-3 79.82-5.33 81.95-7.65 81.95-11.95L81.95-11.95 81.95-24.8 86.15-24.8 86.15 0 82.34 0 82.05-4.45Q80.9-2.1 78.62-0.75 76.34 0.6 73.5 0.6ZM97.24 0L93.04 0 93.04-24.8 96.84-24.8 97.19-20.05Q98.34-22.5 100.69-23.95 103.04-25.4 106.49-25.4L106.49-25.4 106.49-21 105.34-21Q103.14-21 101.29-20.23 99.44-19.45 98.34-17.6 97.24-15.75 97.24-12.5L97.24-12.5 97.24 0ZM113.74-30.3L113.74-30.3Q112.49-30.3 111.67-31.13 110.84-31.95 110.84-33.2L110.84-33.2Q110.84-34.4 111.67-35.2 112.49-36 113.74-36L113.74-36Q114.94-36 115.79-35.2 116.64-34.4 116.64-33.2L116.64-33.2Q116.64-31.95 115.79-31.13 114.94-30.3 113.74-30.3ZM115.84 0L111.64 0 111.64-24.8 115.84-24.8 115.84 0ZM131.39 0.6L131.39 0.6Q128.29 0.6 126.24-0.45 124.19-1.5 123.19-3.25 122.19-5 122.19-7.05L122.19-7.05Q122.19-10.85 125.09-12.9 127.99-14.95 132.99-14.95L132.99-14.95 139.69-14.95 139.69-15.25Q139.69-18.5 137.99-20.18 136.29-21.85 133.44-21.85L133.44-21.85Q130.99-21.85 129.21-20.63 127.44-19.4 126.99-17.05L126.99-17.05 122.69-17.05Q122.94-19.75 124.51-21.6 126.09-23.45 128.44-24.43 130.79-25.4 133.44-25.4L133.44-25.4Q138.64-25.4 141.26-22.63 143.89-19.85 143.89-15.25L143.89-15.25 143.89 0 140.14 0 139.89-4.45Q138.84-2.35 136.81-0.88 134.79 0.6 131.39 0.6ZM132.04-2.95L132.04-2.95Q134.44-2.95 136.16-4.2 137.89-5.45 138.79-7.45 139.69-9.45 139.69-11.65L139.69-11.65 139.69-11.7 133.34-11.7Q129.64-11.7 128.11-10.43 126.59-9.15 126.59-7.25L126.59-7.25Q126.59-5.3 128.01-4.13 129.44-2.95 132.04-2.95Z" opacity="1" transform="matrix(1,0,0,1,0,0)" fill="#ff4057" class="undefined-text-0" data-fill-palette-color="primary" id="text-0"></path></svg></g></svg></g></svg></g></svg></g><g transform="matrix(1,0,0,1,67.70416697173069,0)"><svg viewBox="0 0 56.59166605653862 88.79436098255609" height="88.79436098255609" width="56.59166605653862"><g><svg xmlns="http://www.w3.org/2000/svg" xmlns:xlink="http://www.w3.org/1999/xlink" version="1.1" x="0" y="0" viewBox="26.028 12.385 47.94600015876808 75.229" enable-background="new 0 0 100 100" xml:space="preserve" height="88.79436098255609" width="56.59166605653862" class="icon-icon-0" data-fill-palette-color="accent" id="icon-0"><g fill="#6f6d6d" data-fill-palette-color="accent"><path fill="#6f6d6d" d="M36.555 12.385c-5.805 0-10.527 4.723-10.527 10.528 0 5.805 4.723 10.527 10.527 10.527s10.527-4.723 10.527-10.527C47.082 17.108 42.359 12.385 36.555 12.385z" data-fill-palette-color="accent"></path><path fill="#6f6d6d" d="M36.555 66.559c-5.805 0-10.527 4.723-10.527 10.528 0 5.805 4.723 10.527 10.527 10.527s10.527-4.723 10.527-10.527C47.082 71.282 42.359 66.559 36.555 66.559z" data-fill-palette-color="accent"></path><path fill="#6f6d6d" d="M36.555 40.176c-5.805 0-10.527 4.723-10.527 10.528 0 5.805 4.723 10.527 10.527 10.527s10.527-4.723 10.527-10.527C47.082 44.899 42.359 40.176 36.555 40.176z" data-fill-palette-color="accent"></path><path fill="#6f6d6d" d="M63.447 12.385c-5.805 0-10.527 4.723-10.527 10.528 0 5.805 4.723 10.527 10.527 10.527s10.527-4.723 10.527-10.527C73.975 17.108 69.252 12.385 63.447 12.385z" data-fill-palette-color="accent"></path><path fill="#6f6d6d" d="M63.447 44.926c-2.604 0-4.721 2.117-4.721 4.72 0 2.604 2.117 4.722 4.721 4.722 2.602 0 4.721-2.118 4.721-4.722C68.168 47.043 66.049 44.926 63.447 44.926z" data-fill-palette-color="accent"></path><path fill="#6f6d6d" d="M63.447 71.309c-2.604 0-4.721 2.117-4.721 4.72 0 2.604 2.117 4.722 4.721 4.722 2.602 0 4.721-2.118 4.721-4.722C68.168 73.426 66.049 71.309 63.447 71.309z" data-fill-palette-color="accent"></path></g></svg></g></svg></g><g></g></svg></g></svg></g></svg></g></svg></g><defs></defs></svg><rect width="320" height="360" fill="none" stroke="none" visibility="hidden"></rect></g></svg></g></svg>